<?xml version="1.0" encoding="UTF-8"?>
<svg width="526px" height="162px" viewBox="0 0 526 162" version="1.1" xmlns="http://www.w3.org/2000/svg" xmlns:xlink="http://www.w3.org/1999/xlink">
    <!-- Generator: Sketch 50.2 (55047) - http://www.bohemiancoding.com/sketch -->
    <title>Group 6</title>
    <desc>Created with Sketch.</desc>
    <defs>
        <path d="M5.46918637,85.7198868 L46.5241049,2.31836461 C47.4997642,0.336349464 49.8974331,-0.479463144 51.8794482,0.496196154 C52.6246856,0.863043877 53.2372337,1.45279514 53.6320685,2.18359018 L98.8320579,85.8437054 C110.61639,107.655183 105.069051,134.776881 85.6669659,150.209642 L85.1251614,150.640603 C65.8713182,165.95545 38.5454437,165.776016 19.4943802,150.209642 L19.4943802,150.209642 C0.383884248,134.594706 -5.43007532,107.861327 5.46918637,85.7198868 Z" id="path-1"></path>
    </defs>
    <g id="Parcours-Utilisateur" stroke="none" stroke-width="1" fill="none" fill-rule="evenodd">
        <g id="Group-6" transform="translate(0.000000, -21.000000)">
            <g id="Group-5">
                <g id="Group-4" transform="translate(0.000000, 21.000000)">
                    <mask id="mask-2" fill="white">
                        <use xlink:href="#path-1"></use>
                    </mask>
                    <use id="Rectangle-10" fill="#EDE03B" xlink:href="#path-1"></use>
                    <path d="M5.46918637,85.7198868 L46.5241049,2.31836461 C47.4997642,0.336349464 49.8974331,-0.479463144 51.8794482,0.496196154 C52.6246856,0.863043877 53.2372337,1.45279514 53.6320685,2.18359018 L98.8320579,85.8437054 C110.61639,107.655183 105.069051,134.776881 85.6669659,150.209642 L85.1251614,150.640603 C65.8713182,165.95545 38.5454437,165.776016 19.4943802,150.209642 L19.4943802,150.209642 C0.383884248,134.594706 -5.43007532,107.861327 5.46918637,85.7198868 Z" id="Rectangle-10-Copy" fill="#FFD225" mask="url(#mask-2)"></path>
                    <rect id="Rectangle-11" fill="#F5A623" mask="url(#mask-2)" x="50" y="-11" width="64" height="192"></rect>
                </g>
                <text id="Candle" font-family="Poppins-Medium, Poppins" font-size="104" font-weight="400" fill="#4F565E">
                    <tspan x="148" y="116">Candle</tspan>
                </text>
                <text id="Light-Firebase-Web-A" font-family="Poppins-Regular, Poppins" font-size="29" font-weight="normal" fill="#4F565E">
                    <tspan x="153" y="170">Light Firebase Web Admin</tspan>
                </text>
            </g>
        </g>
    </g>
</svg>